<svg width="903" height="423" viewBox="0 0 903 423" fill="none" xmlns="http://www.w3.org/2000/svg">
<path d="M153.927 16.66C159.583 16.66 164.296 18.478 168.067 22.114C171.837 25.75 173.723 30.6653 173.723 36.86C173.723 43.8627 171.635 49.5187 167.461 53.828C163.286 58.1373 158.303 60.292 152.513 60.292C148.742 60.292 145.51 59.6187 142.817 58.272C140.123 56.9253 137.565 54.7707 135.141 51.808L117.769 66.352L137.363 124.326C138.575 127.693 139.854 130.386 141.201 132.406C142.682 134.426 144.433 136.446 146.453 138.466C147.934 139.947 148.944 141.159 149.483 142.102C150.156 142.91 150.493 143.92 150.493 145.132C150.493 147.287 149.483 148.97 147.463 150.182C145.577 151.394 142.211 152 137.363 152H110.901C104.302 152 99.3865 150.586 96.1545 147.758C93.0572 144.795 90.4985 139.947 88.4785 133.214L78.3785 99.278L72.5205 104.126L65.8545 128.164C65.3158 129.915 65.0465 131.598 65.0465 133.214C65.0465 134.83 65.2485 136.177 65.6525 137.254C66.1912 138.331 66.9318 139.476 67.8745 140.688C69.0865 142.439 69.6925 143.853 69.6925 144.93C69.6925 145.199 69.5578 145.873 69.2885 146.95C68.7498 148.835 67.5378 150.182 65.6525 150.99C63.7672 151.663 60.9392 152 57.1685 152H9.6985C6.8705 152 4.71583 151.529 3.2345 150.586C1.6185 149.643 0.8105 148.364 0.8105 146.748C0.8105 145.94 1.0125 145.065 1.4165 144.122C1.95517 142.641 2.8305 141.496 4.0425 140.688C5.2545 139.88 5.99517 139.409 6.2645 139.274C8.41917 137.927 10.1698 136.581 11.5165 135.234C12.8632 133.753 14.0078 131.396 14.9505 128.164L39.5945 41.102C40.1332 39.3513 40.4025 37.668 40.4025 36.052C40.4025 34.5707 40.1332 33.3587 39.5945 32.416C39.1905 31.3387 38.5845 30.1267 37.7765 28.78C36.5645 27.0293 35.9585 25.6153 35.9585 24.538C35.9585 24.134 36.0932 23.3933 36.3625 22.316C36.9012 20.5653 38.0458 19.3533 39.7965 18.68C41.6818 17.872 44.5098 17.468 48.2805 17.468H95.7505C98.5785 17.468 100.733 17.9393 102.215 18.882C103.831 19.69 104.639 20.902 104.639 22.518C104.639 23.1913 104.437 24.0667 104.033 25.144C103.629 26.0867 103.023 26.962 102.215 27.77C101.541 28.4433 100.868 28.982 100.195 29.386C99.6558 29.6553 99.2518 29.9247 98.9825 30.194C96.8278 31.406 95.0772 32.7527 93.7305 34.234C92.3838 35.7153 91.2392 38.0047 90.2965 41.102L81.8125 71.2L135.343 24.942C138.844 21.9793 142.009 19.892 144.837 18.68C147.665 17.3333 150.695 16.66 153.927 16.66ZM233.537 44.132C250.639 44.132 263.029 46.8927 270.705 52.414C278.381 57.8007 282.219 64.736 282.219 73.22C282.219 75.7787 281.949 78.1353 281.411 80.29C279.391 89.178 273.735 95.5747 264.443 99.48C255.285 103.251 244.445 105.136 231.921 105.136C225.591 105.136 219.666 104.732 214.145 103.924C214.01 110.927 215.895 115.842 219.801 118.67C223.706 121.498 229.16 122.912 236.163 122.912C239.395 122.912 242.492 122.575 245.455 121.902C248.417 121.094 252.188 119.949 256.767 118.468C260.537 117.121 263.096 116.448 264.443 116.448C265.924 116.448 266.665 117.323 266.665 119.074C266.799 123.787 265.049 128.77 261.413 134.022C257.777 139.139 252.39 143.516 245.253 147.152C238.115 150.788 229.497 152.606 219.397 152.606C204.449 152.606 192.194 148.835 182.633 141.294C173.071 133.753 168.291 122.777 168.291 108.368C168.291 104.328 168.829 99.6147 169.907 94.228C173.273 77.664 180.613 65.2073 191.925 56.858C203.371 48.374 217.242 44.132 233.537 44.132ZM215.559 91.804C216.097 91.9387 216.838 92.006 217.781 92.006C223.437 92.006 227.746 89.38 230.709 84.128C233.671 78.876 235.085 73.018 234.951 66.554C234.816 62.7833 233.739 60.898 231.719 60.898C230.237 60.898 228.487 62.11 226.467 64.534C224.447 66.8233 222.427 70.3247 220.407 75.038C218.521 79.7513 216.905 85.34 215.559 91.804ZM346.57 44.132C363.672 44.132 376.062 46.8927 383.738 52.414C391.414 57.8007 395.252 64.736 395.252 73.22C395.252 75.7787 394.982 78.1353 394.444 80.29C392.424 89.178 386.768 95.5747 377.476 99.48C368.318 103.251 357.478 105.136 344.954 105.136C338.624 105.136 332.699 104.732 327.178 103.924C327.043 110.927 328.928 115.842 332.834 118.67C336.739 121.498 342.193 122.912 349.196 122.912C352.428 122.912 355.525 122.575 358.488 121.902C361.45 121.094 365.221 119.949 369.8 118.468C373.57 117.121 376.129 116.448 377.476 116.448C378.957 116.448 379.698 117.323 379.698 119.074C379.832 123.787 378.082 128.77 374.446 134.022C370.81 139.139 365.423 143.516 358.286 147.152C351.148 150.788 342.53 152.606 332.43 152.606C317.482 152.606 305.227 148.835 295.666 141.294C286.104 133.753 281.324 122.777 281.324 108.368C281.324 104.328 281.862 99.6147 282.94 94.228C286.306 77.664 293.646 65.2073 304.958 56.858C316.404 48.374 330.275 44.132 346.57 44.132ZM328.592 91.804C329.13 91.9387 329.871 92.006 330.814 92.006C336.47 92.006 340.779 89.38 343.742 84.128C346.704 78.876 348.118 73.018 347.984 66.554C347.849 62.7833 346.772 60.898 344.752 60.898C343.27 60.898 341.52 62.11 339.5 64.534C337.48 66.8233 335.46 70.3247 333.44 75.038C331.554 79.7513 329.938 85.34 328.592 91.804ZM496.771 44.334C507.14 44.334 515.288 47.768 521.213 54.636C527.138 61.504 530.101 70.8633 530.101 82.714C530.101 89.0433 529.226 95.7093 527.475 102.712C523.435 119.411 515.894 132.137 504.851 140.89C493.808 149.509 481.015 153.818 466.471 153.818C457.179 153.818 449.099 151.865 442.231 147.96L435.767 169.574C435.228 171.055 434.959 172.469 434.959 173.816C434.959 175.297 435.296 176.509 435.969 177.452C436.642 178.529 437.518 179.539 438.595 180.482C439.672 181.559 440.346 182.435 440.615 183.108C441.019 183.781 441.086 184.589 440.817 185.532C440.278 187.283 438.999 188.495 436.979 189.168C434.959 189.976 431.862 190.38 427.687 190.38H381.429C377.928 190.38 375.436 189.774 373.955 188.562C372.339 187.485 371.868 186.071 372.541 184.32C372.81 183.243 373.282 182.367 373.955 181.694C374.628 181.021 375.571 180.415 376.783 179.876C378.803 178.529 380.419 177.115 381.631 175.634C382.843 174.287 383.92 172.065 384.863 168.968L414.355 72.21C414.759 70.998 414.961 69.988 414.961 69.18C414.961 67.6987 414.624 66.554 413.951 65.746C413.278 64.8033 412.268 63.8607 410.921 62.918C409.574 61.8407 408.632 60.898 408.093 60.09C407.554 59.282 407.487 58.2047 407.891 56.858C408.699 53.7607 412.941 51.0673 420.617 48.778C428.293 46.354 436.306 45.142 444.655 45.142C450.58 45.142 455.428 46.6233 459.199 49.586C463.104 52.5487 465.326 56.656 465.865 61.908C475.022 50.192 485.324 44.334 496.771 44.334ZM473.339 104.328C476.571 92.3427 478.187 84.0607 478.187 79.482C478.187 76.654 477.716 74.836 476.773 74.028C475.965 73.0853 474.753 72.614 473.137 72.614C471.925 72.614 470.376 73.22 468.491 74.432C466.606 75.5093 464.72 77.3947 462.835 80.088L446.877 133.012C448.493 134.628 450.446 135.436 452.735 135.436C456.371 135.436 459.805 133.416 463.037 129.376C466.404 125.201 469.838 116.852 473.339 104.328ZM624.355 45.142C632.165 45.142 637.889 46.6233 641.525 49.586C645.161 52.5487 646.979 56.5887 646.979 61.706C646.979 64.8033 646.507 67.766 645.565 70.594L626.981 130.992C626.577 132.608 626.375 134.022 626.375 135.234C626.375 136.985 626.711 138.399 627.385 139.476C628.058 140.419 629.001 141.361 630.213 142.304C631.155 143.247 631.829 144.055 632.233 144.728C632.637 145.267 632.704 146.007 632.435 146.95C631.761 148.701 630.415 149.98 628.395 150.788C626.375 151.596 623.277 152 619.103 152H573.047C569.545 152 566.987 151.461 565.371 150.384C563.755 149.172 563.216 147.623 563.755 145.738C564.293 144.122 565.707 142.708 567.997 141.496C570.017 140.419 571.7 139.139 573.047 137.658C574.393 136.177 575.538 133.82 576.481 130.588L594.055 72.21C594.459 70.998 594.661 69.988 594.661 69.18C594.661 67.6987 594.324 66.554 593.651 65.746C592.977 64.8033 591.967 63.8607 590.621 62.918C589.274 61.8407 588.331 60.898 587.793 60.09C587.254 59.282 587.187 58.2047 587.591 56.858C588.399 53.7607 592.641 51.0673 600.317 48.778C607.993 46.354 616.005 45.142 624.355 45.142ZM637.889 0.499988C643.141 0.499988 647.517 2.25066 651.019 5.75199C654.52 9.11866 656.271 13.2933 656.271 18.276C656.271 21.7773 655.328 25.2113 653.443 28.578C651.692 31.9447 649.133 34.7053 645.767 36.86C642.535 38.88 638.899 39.89 634.859 39.89C629.741 39.89 625.432 38.2067 621.931 34.84C618.564 31.3387 616.813 27.0293 616.679 21.912C616.679 18.5453 617.554 15.246 619.305 12.014C621.055 8.64732 623.547 5.88666 626.779 3.73199C630.011 1.57732 633.714 0.499988 637.889 0.499988ZM735.497 47.768C738.056 47.768 740.008 48.3067 741.355 49.384C742.836 50.4613 743.577 51.9427 743.577 53.828C743.577 54.3667 743.442 55.3093 743.173 56.656C741.422 62.5813 737.382 65.544 731.053 65.544H719.337L704.187 115.438C703.514 117.458 703.177 119.545 703.177 121.7C703.177 124.124 703.85 125.807 705.197 126.75C706.544 127.693 708.429 128.164 710.853 128.164C713.008 128.164 715.701 127.895 718.933 127.356C720.549 126.952 721.963 126.75 723.175 126.75C724.118 126.75 724.791 127.087 725.195 127.76C725.734 128.299 726.003 129.039 726.003 129.982C726.138 132.675 724.118 135.975 719.943 139.88C715.903 143.651 710.382 146.95 703.379 149.778C696.376 152.471 688.633 153.818 680.149 153.818C670.992 153.818 663.652 151.731 658.131 147.556C652.61 143.381 649.849 137.658 649.849 130.386C649.849 127.019 650.388 123.787 651.465 120.69L664.393 80.694C665.066 78.4047 665.403 76.5867 665.403 75.24C665.403 72.5467 664.73 70.2573 663.383 68.372C662.171 66.4867 660.42 64.534 658.131 62.514C656.111 60.6287 654.697 59.08 653.889 57.868C653.081 56.5213 652.879 54.9727 653.283 53.222C653.822 51.4713 654.966 50.1247 656.717 49.182C658.468 48.2393 661.228 47.768 664.999 47.768H676.311L689.037 35.042C693.481 30.598 697.521 27.5007 701.157 25.75C704.928 23.9993 709.776 23.124 715.701 23.124C724.185 23.124 728.427 26.356 728.427 32.82C728.427 34.84 728.158 36.7253 727.619 38.476L724.791 47.768H735.497Z" fill="#07EB79"/>
<path d="M542.191 219.258C545.763 206.286 550.745 196.51 557.137 189.93C563.717 183.35 572.741 180.06 584.209 180.06C593.233 180.06 600.471 182.974 605.923 188.802C611.375 194.442 614.101 201.492 614.101 209.952C614.101 212.772 613.631 216.062 612.691 219.822C610.623 228.094 606.957 234.11 601.693 237.87C596.429 241.442 590.695 243.228 584.491 243.228C581.295 243.228 578.381 243.04 575.749 242.664C573.305 242.1 570.955 241.442 568.699 240.69L552.061 301.884C546.045 324.256 535.987 341.364 521.887 353.208C507.787 364.864 488.611 370.692 464.359 370.692C442.175 370.692 424.879 366.462 412.471 358.002C400.251 349.542 394.141 336.382 394.141 318.522C394.141 309.874 395.645 300.38 398.653 290.04L420.085 214.182C420.837 211.738 421.213 209.388 421.213 207.132C421.213 204.876 420.837 203.09 420.085 201.774C419.521 200.27 418.675 198.578 417.547 196.698C415.855 194.254 415.009 192.28 415.009 190.776C415.009 190.024 415.197 189.084 415.573 187.956C416.325 185.512 418.017 183.82 420.649 182.88C423.281 181.752 427.135 181.188 432.211 181.188H498.481C506.565 181.188 510.607 183.632 510.607 188.52C510.607 189.648 510.513 190.588 510.325 191.34C509.761 193.032 508.915 194.442 507.787 195.57C506.847 196.51 505.343 197.638 503.275 198.954C500.267 200.646 497.823 202.526 495.943 204.594C494.063 206.662 492.465 209.858 491.149 214.182L466.615 300.474C464.923 306.866 464.077 312.318 464.077 316.83C464.077 329.426 470.845 335.724 484.381 335.724C492.653 335.724 499.515 333.092 504.967 327.828C510.607 322.376 515.307 313.164 519.067 300.192L542.191 219.258ZM739.615 218.694C754.091 218.694 765.465 223.488 773.737 233.076C782.009 242.664 786.145 255.73 786.145 272.274C786.145 281.11 784.923 290.416 782.479 300.192C776.839 323.504 766.311 341.27 750.895 353.49C735.479 365.522 717.619 371.538 697.315 371.538C684.343 371.538 673.063 368.812 663.475 363.36L654.451 393.534C653.699 395.602 653.323 397.576 653.323 399.456C653.323 401.524 653.793 403.216 654.733 404.532C655.673 406.036 656.895 407.446 658.399 408.762C659.903 410.266 660.843 411.488 661.219 412.428C661.783 413.368 661.877 414.496 661.501 415.812C660.749 418.256 658.963 419.948 656.143 420.888C653.323 422.016 648.999 422.58 643.171 422.58H578.593C573.705 422.58 570.227 421.734 568.159 420.042C565.903 418.538 565.245 416.564 566.185 414.12C566.561 412.616 567.219 411.394 568.159 410.454C569.099 409.514 570.415 408.668 572.107 407.916C574.927 406.036 577.183 404.062 578.875 401.994C580.567 400.114 582.071 397.012 583.387 392.688L624.559 257.61C625.123 255.918 625.405 254.508 625.405 253.38C625.405 251.312 624.935 249.714 623.995 248.586C623.055 247.27 621.645 245.954 619.765 244.638C617.885 243.134 616.569 241.818 615.817 240.69C615.065 239.562 614.971 238.058 615.535 236.178C616.663 231.854 622.585 228.094 633.301 224.898C644.017 221.514 655.203 219.822 666.859 219.822C675.131 219.822 681.899 221.89 687.163 226.026C692.615 230.162 695.717 235.896 696.469 243.228C709.253 226.872 723.635 218.694 739.615 218.694ZM706.903 302.448C711.415 285.716 713.671 274.154 713.671 267.762C713.671 263.814 713.013 261.276 711.697 260.148C710.569 258.832 708.877 258.174 706.621 258.174C704.929 258.174 702.767 259.02 700.135 260.712C697.503 262.216 694.871 264.848 692.239 268.608L669.961 342.492C672.217 344.748 674.943 345.876 678.139 345.876C683.215 345.876 688.009 343.056 692.521 337.416C697.221 331.588 702.015 319.932 706.903 302.448ZM826.867 201.492C828.183 173.48 842.377 159.474 869.449 159.474C879.789 159.474 887.779 161.73 893.419 166.242C899.247 170.754 902.161 177.052 902.161 185.136C902.161 193.408 899.247 202.808 893.419 213.336L849.145 292.296C846.889 296.62 844.539 299.722 842.095 301.602C839.839 303.294 837.019 304.14 833.635 304.14C826.303 304.14 822.825 299.722 823.201 290.886L826.867 201.492ZM826.021 312.036C833.541 312.036 839.839 314.574 844.915 319.65C850.179 324.726 852.811 330.93 852.811 338.262C852.811 343.338 851.401 348.32 848.581 353.208C845.949 358.096 842.189 362.138 837.301 365.334C832.601 368.342 827.243 369.846 821.227 369.846C813.895 369.846 807.691 367.308 802.615 362.232C797.539 357.156 794.907 350.952 794.719 343.62C794.719 338.544 796.035 333.562 798.667 328.674C801.299 323.786 804.965 319.838 809.665 316.83C814.553 313.634 820.005 312.036 826.021 312.036Z" fill="#07EB79"/>
</svg>
