<svg width="809" height="347" viewBox="0 0 809 347" fill="none" xmlns="http://www.w3.org/2000/svg">
<path d="M153.137 6.66C158.793 6.66 163.507 8.478 167.277 12.114C171.048 15.75 172.933 20.6653 172.933 26.86C172.933 33.8627 170.846 39.5187 166.671 43.828C162.497 48.1373 157.514 50.292 151.723 50.292C147.953 50.292 144.721 49.6187 142.027 48.272C139.334 46.9253 136.775 44.7707 134.351 41.808L116.979 56.352L136.573 114.326C137.785 117.693 139.065 120.386 140.411 122.406C141.893 124.426 143.643 126.446 145.663 128.466C147.145 129.947 148.155 131.159 148.693 132.102C149.367 132.91 149.703 133.92 149.703 135.132C149.703 137.287 148.693 138.97 146.673 140.182C144.788 141.394 141.421 142 136.573 142H110.111C103.513 142 98.5974 140.586 95.3654 137.758C92.2681 134.795 89.7094 129.947 87.6894 123.214L77.5894 89.278L71.7314 94.126L65.0654 118.164C64.5268 119.915 64.2574 121.598 64.2574 123.214C64.2574 124.83 64.4594 126.177 64.8634 127.254C65.4021 128.331 66.1428 129.476 67.0854 130.688C68.2974 132.439 68.9034 133.853 68.9034 134.93C68.9034 135.199 68.7688 135.873 68.4994 136.95C67.9608 138.835 66.7488 140.182 64.8634 140.99C62.9781 141.663 60.1501 142 56.3794 142H8.90944C6.08144 142 3.92677 141.529 2.44544 140.586C0.829437 139.643 0.0214374 138.364 0.0214374 136.748C0.0214374 135.94 0.223437 135.065 0.627437 134.122C1.1661 132.641 2.04144 131.496 3.25344 130.688C4.46544 129.88 5.2061 129.409 5.47544 129.274C7.6301 127.927 9.38077 126.581 10.7274 125.234C12.0741 123.753 13.2188 121.396 14.1614 118.164L38.8054 31.102C39.3441 29.3513 39.6134 27.668 39.6134 26.052C39.6134 24.5707 39.3441 23.3587 38.8054 22.416C38.4014 21.3387 37.7954 20.1267 36.9874 18.78C35.7754 17.0293 35.1694 15.6153 35.1694 14.538C35.1694 14.134 35.3041 13.3933 35.5734 12.316C36.1121 10.5653 37.2568 9.35333 39.0074 8.67999C40.8928 7.872 43.7208 7.468 47.4914 7.468H94.9614C97.7894 7.468 99.9441 7.93933 101.425 8.88199C103.041 9.68999 103.849 10.902 103.849 12.518C103.849 13.1913 103.647 14.0667 103.243 15.144C102.839 16.0867 102.233 16.962 101.425 17.77C100.752 18.4433 100.079 18.982 99.4054 19.386C98.8668 19.6553 98.4628 19.9247 98.1934 20.194C96.0388 21.406 94.2881 22.7527 92.9414 24.234C91.5948 25.7153 90.4501 28.0047 89.5074 31.102L81.0234 61.2L134.553 14.942C138.055 11.9793 141.219 9.892 144.047 8.67999C146.875 7.33333 149.905 6.66 153.137 6.66ZM232.748 34.132C249.85 34.132 262.24 36.8927 269.916 42.414C277.592 47.8007 281.43 54.736 281.43 63.22C281.43 65.7787 281.16 68.1353 280.622 70.29C278.602 79.178 272.946 85.5747 263.654 89.48C254.496 93.2507 243.656 95.136 231.132 95.136C224.802 95.136 218.877 94.732 213.356 93.924C213.221 100.927 215.106 105.842 219.012 108.67C222.917 111.498 228.371 112.912 235.374 112.912C238.606 112.912 241.703 112.575 244.666 111.902C247.628 111.094 251.399 109.949 255.978 108.468C259.748 107.121 262.307 106.448 263.654 106.448C265.135 106.448 265.876 107.323 265.876 109.074C266.01 113.787 264.26 118.77 260.624 124.022C256.988 129.139 251.601 133.516 244.464 137.152C237.326 140.788 228.708 142.606 218.608 142.606C203.66 142.606 191.405 138.835 181.844 131.294C172.282 123.753 167.502 112.777 167.502 98.368C167.502 94.328 168.04 89.6147 169.118 84.228C172.484 67.664 179.824 55.2073 191.136 46.858C202.582 38.374 216.453 34.132 232.748 34.132ZM214.77 81.804C215.308 81.9387 216.049 82.006 216.992 82.006C222.648 82.006 226.957 79.38 229.92 74.128C232.882 68.876 234.296 63.018 234.162 56.554C234.027 52.7833 232.95 50.898 230.93 50.898C229.448 50.898 227.698 52.11 225.678 54.534C223.658 56.8233 221.638 60.3247 219.618 65.038C217.732 69.7513 216.116 75.34 214.77 81.804ZM345.781 34.132C362.883 34.132 375.273 36.8927 382.949 42.414C390.625 47.8007 394.463 54.736 394.463 63.22C394.463 65.7787 394.193 68.1353 393.655 70.29C391.635 79.178 385.979 85.5747 376.687 89.48C367.529 93.2507 356.689 95.136 344.165 95.136C337.835 95.136 331.91 94.732 326.389 93.924C326.254 100.927 328.139 105.842 332.045 108.67C335.95 111.498 341.404 112.912 348.407 112.912C351.639 112.912 354.736 112.575 357.699 111.902C360.661 111.094 364.432 109.949 369.011 108.468C372.781 107.121 375.34 106.448 376.687 106.448C378.168 106.448 378.909 107.323 378.909 109.074C379.043 113.787 377.293 118.77 373.657 124.022C370.021 129.139 364.634 133.516 357.497 137.152C350.359 140.788 341.741 142.606 331.641 142.606C316.693 142.606 304.438 138.835 294.877 131.294C285.315 123.753 280.535 112.777 280.535 98.368C280.535 94.328 281.073 89.6147 282.151 84.228C285.517 67.664 292.857 55.2073 304.169 46.858C315.615 38.374 329.486 34.132 345.781 34.132ZM327.803 81.804C328.341 81.9387 329.082 82.006 330.025 82.006C335.681 82.006 339.99 79.38 342.953 74.128C345.915 68.876 347.329 63.018 347.195 56.554C347.06 52.7833 345.983 50.898 343.963 50.898C342.481 50.898 340.731 52.11 338.711 54.534C336.691 56.8233 334.671 60.3247 332.651 65.038C330.765 69.7513 329.149 75.34 327.803 81.804ZM495.982 34.334C506.351 34.334 514.499 37.768 520.424 44.636C526.349 51.504 529.312 60.8633 529.312 72.714C529.312 79.0433 528.437 85.7093 526.686 92.712C522.646 109.411 515.105 122.137 504.062 130.89C493.019 139.509 480.226 143.818 465.682 143.818C456.39 143.818 448.31 141.865 441.442 137.96L434.978 159.574C434.439 161.055 434.17 162.469 434.17 163.816C434.17 165.297 434.507 166.509 435.18 167.452C435.853 168.529 436.729 169.539 437.806 170.482C438.883 171.559 439.557 172.435 439.826 173.108C440.23 173.781 440.297 174.589 440.028 175.532C439.489 177.283 438.21 178.495 436.19 179.168C434.17 179.976 431.073 180.38 426.898 180.38H380.64C377.139 180.38 374.647 179.774 373.166 178.562C371.55 177.485 371.079 176.071 371.752 174.32C372.021 173.243 372.493 172.367 373.166 171.694C373.839 171.021 374.782 170.415 375.994 169.876C378.014 168.529 379.63 167.115 380.842 165.634C382.054 164.287 383.131 162.065 384.074 158.968L413.566 62.21C413.97 60.998 414.172 59.988 414.172 59.18C414.172 57.6987 413.835 56.554 413.162 55.746C412.489 54.8033 411.479 53.8607 410.132 52.918C408.785 51.8407 407.843 50.898 407.304 50.09C406.765 49.282 406.698 48.2047 407.102 46.858C407.91 43.7607 412.152 41.0673 419.828 38.778C427.504 36.354 435.517 35.142 443.866 35.142C449.791 35.142 454.639 36.6233 458.41 39.586C462.315 42.5487 464.537 46.656 465.076 51.908C474.233 40.192 484.535 34.334 495.982 34.334ZM472.55 94.328C475.782 82.3427 477.398 74.0607 477.398 69.482C477.398 66.654 476.927 64.836 475.984 64.028C475.176 63.0853 473.964 62.614 472.348 62.614C471.136 62.614 469.587 63.22 467.702 64.432C465.817 65.5093 463.931 67.3947 462.046 70.088L446.088 123.012C447.704 124.628 449.657 125.436 451.946 125.436C455.582 125.436 459.016 123.416 462.248 119.376C465.615 115.201 469.049 106.852 472.55 94.328Z" fill="#00A995"/>
<path d="M215.556 307.212C206.533 307.212 198.318 305.259 190.912 301.354C183.64 297.314 177.849 291.456 173.54 283.78C169.23 275.969 167.076 266.677 167.076 255.904C167.076 247.689 168.49 238.532 171.318 228.432C177.512 206.885 187.208 191.668 200.406 182.78C213.738 173.892 227.945 169.448 243.028 169.448C256.764 169.448 269.153 174.431 280.196 184.396L286.256 178.538C289.622 175.71 292.518 173.757 294.942 172.68C297.366 171.603 300.194 171.064 303.426 171.064C306.927 171.064 309.755 171.939 311.91 173.69C314.064 175.306 315.142 177.528 315.142 180.356C315.142 181.433 314.94 182.713 314.536 184.194L307.264 209.646C305.917 213.955 304.301 216.985 302.416 218.736C300.665 220.487 298.241 221.362 295.144 221.362C291.912 221.362 289.016 220.554 286.458 218.938C284.034 217.322 281.206 214.427 277.974 210.252C273.664 204.596 269.826 200.623 266.46 198.334C263.228 195.91 259.659 194.698 255.754 194.698C249.694 194.698 243.903 197.795 238.382 203.99C232.995 210.05 228.282 220.217 224.242 234.492C221.683 243.784 220.404 251.797 220.404 258.53C220.404 265.667 221.75 271.121 224.444 274.892C227.272 278.528 231.177 280.346 236.16 280.346C240.469 280.346 243.768 279.336 246.058 277.316C248.482 275.296 250.367 271.795 251.714 266.812L253.128 261.762C253.801 259.069 254.138 257.251 254.138 256.308C254.138 254.692 253.734 253.547 252.926 252.874C252.252 252.201 251.04 251.46 249.29 250.652L242.22 248.026C239.122 246.814 237.574 244.592 237.574 241.36C237.574 240.417 237.641 239.677 237.776 239.138C238.314 237.387 239.257 236.108 240.604 235.3C242.085 234.492 244.307 234.088 247.27 234.088L308.274 234.29C312.718 234.29 314.94 235.704 314.94 238.532C314.94 239.071 314.805 239.879 314.536 240.956C313.997 242.976 313.122 244.592 311.91 245.804C310.698 247.016 308.947 248.228 306.658 249.44L301.406 252.47C300.059 253.278 299.049 254.086 298.376 254.894C297.702 255.567 297.231 256.443 296.962 257.52L286.256 294.89C284.909 299.334 283.36 302.297 281.61 303.778C279.994 305.259 277.974 306 275.55 306H267.066C263.834 306 261.14 305.327 258.986 303.98C256.966 302.633 255.282 300.007 253.936 296.102L251.916 290.244C242.22 301.556 230.1 307.212 215.556 307.212ZM386.819 199.142C405.133 199.142 418.6 202.845 427.219 210.252C435.972 217.659 440.349 227.355 440.349 239.34C440.349 243.38 439.81 247.891 438.733 252.874C436.174 263.917 431.393 273.613 424.391 281.962C417.388 290.177 408.769 296.573 398.535 301.152C388.435 305.596 377.459 307.818 365.609 307.818C346.89 307.818 333.019 304.115 323.997 296.708C315.109 289.167 310.665 279.201 310.665 266.812C310.665 262.637 311.203 257.991 312.281 252.874C314.839 242.37 319.687 233.078 326.825 224.998C334.097 216.783 342.917 210.454 353.287 206.01C363.791 201.431 374.968 199.142 386.819 199.142ZM386.213 217.12C383.385 217.12 380.355 219.679 377.123 224.796C374.025 229.779 370.322 239.273 366.013 253.278C361.703 267.283 359.549 277.114 359.549 282.77C359.549 285.733 360.02 287.753 360.963 288.83C361.905 289.773 363.185 290.244 364.801 290.244C367.629 290.513 370.524 288.089 373.487 282.972C376.584 277.855 380.422 267.889 385.001 253.076C389.175 240.013 391.263 230.519 391.263 224.594C391.263 221.766 390.791 219.813 389.849 218.736C389.041 217.659 387.829 217.12 386.213 217.12ZM494.333 199.142C502.144 199.142 507.867 200.623 511.503 203.586C515.139 206.549 516.957 210.589 516.957 215.706C516.957 218.803 516.486 221.766 515.543 224.594L496.959 284.992C496.555 286.608 496.353 288.022 496.353 289.234C496.353 290.985 496.69 292.399 497.363 293.476C498.036 294.419 498.979 295.361 500.191 296.304C501.134 297.247 501.807 298.055 502.211 298.728C502.615 299.267 502.682 300.007 502.413 300.95C501.74 302.701 500.393 303.98 498.373 304.788C496.353 305.596 493.256 306 489.081 306H443.025C439.524 306 436.965 305.461 435.349 304.384C433.733 303.172 433.194 301.623 433.733 299.738C434.272 298.122 435.686 296.708 437.975 295.496C439.995 294.419 441.678 293.139 443.025 291.658C444.372 290.177 445.516 287.82 446.459 284.588L464.033 226.21C464.437 224.998 464.639 223.988 464.639 223.18C464.639 221.699 464.302 220.554 463.629 219.746C462.956 218.803 461.946 217.861 460.599 216.918C459.252 215.841 458.31 214.898 457.771 214.09C457.232 213.282 457.165 212.205 457.569 210.858C458.377 207.761 462.619 205.067 470.295 202.778C477.971 200.354 485.984 199.142 494.333 199.142ZM507.867 154.5C513.119 154.5 517.496 156.251 520.997 159.752C524.498 163.119 526.249 167.293 526.249 172.276C526.249 175.777 525.306 179.211 523.421 182.578C521.67 185.945 519.112 188.705 515.745 190.86C512.513 192.88 508.877 193.89 504.837 193.89C499.72 193.89 495.41 192.207 491.909 188.84C488.542 185.339 486.792 181.029 486.657 175.912C486.657 172.545 487.532 169.246 489.283 166.014C491.034 162.647 493.525 159.887 496.757 157.732C499.989 155.577 503.692 154.5 507.867 154.5ZM640.22 278.124C639.95 278.663 639.816 279.471 639.816 280.548C639.816 281.491 640.018 282.231 640.422 282.77C640.96 283.309 641.634 283.578 642.442 283.578C644.058 283.578 645.404 282.905 646.482 281.558C647.694 280.077 648.502 279.336 648.906 279.336C649.579 279.336 650.118 279.807 650.522 280.75C650.926 281.558 651.128 282.568 651.128 283.78C651.262 287.685 649.983 291.523 647.29 295.294C644.596 298.93 640.624 301.96 635.372 304.384C630.254 306.673 624.06 307.818 616.788 307.818C607.9 307.818 600.83 305.798 595.578 301.758C590.326 297.583 587.632 292.062 587.498 285.194C587.498 280.211 588.71 274.623 591.134 268.428L602.244 239.34C602.917 237.589 603.254 236.175 603.254 235.098C603.254 233.347 602.648 232.001 601.436 231.058C600.358 229.981 599.012 229.442 597.396 229.442C594.433 229.442 591.605 230.856 588.912 233.684C586.218 236.377 584.266 239.744 583.054 243.784L570.53 284.992C569.991 286.473 569.722 287.887 569.722 289.234C569.722 290.85 570.058 292.197 570.732 293.274C571.405 294.217 572.348 295.227 573.56 296.304C574.502 297.112 575.176 297.853 575.58 298.526C575.984 299.199 576.051 300.007 575.782 300.95C575.243 302.701 573.964 303.98 571.944 304.788C569.924 305.596 566.759 306 562.45 306H516.394C512.892 306 510.401 305.461 508.92 304.384C507.304 303.172 506.698 301.623 507.102 299.738C507.64 298.122 509.054 296.708 511.344 295.496C513.364 294.419 515.047 293.139 516.394 291.658C517.74 290.177 518.885 287.82 519.828 284.588L537.806 226.21C538.075 225.537 538.21 224.594 538.21 223.382C538.21 221.901 537.873 220.756 537.2 219.948C536.661 219.14 535.718 218.13 534.372 216.918C533.025 215.841 532.082 214.898 531.544 214.09C531.005 213.282 530.938 212.205 531.342 210.858C532.15 207.761 536.392 205.067 544.068 202.778C551.744 200.354 559.756 199.142 568.106 199.142C574.839 199.142 580.158 201.027 584.064 204.798C587.969 208.434 589.72 213.551 589.316 220.15C594.837 212.205 600.695 206.751 606.89 203.788C613.084 200.691 619.818 199.142 627.09 199.142C635.304 199.142 641.903 201.633 646.886 206.616C652.003 211.599 654.562 218.063 654.562 226.008C654.562 230.183 653.888 234.29 652.542 238.33L640.22 278.124ZM782.189 166.216C786.499 166.216 790.673 167.159 794.713 169.044C798.888 170.795 802.255 173.286 804.813 176.518C807.507 179.615 808.853 182.982 808.853 186.618C808.853 194.563 803.467 198.536 792.693 198.536C789.596 198.536 787.172 198.334 785.421 197.93C783.805 197.391 781.853 196.583 779.563 195.506C779.159 196.449 778.957 197.795 778.957 199.546C778.957 201.701 779.294 204.259 779.967 207.222C780.775 210.185 781.718 212.945 782.795 215.504C785.623 219.679 787.037 224.661 787.037 230.452C787.037 233.011 786.701 236.108 786.027 239.744C784.411 246.747 780.843 253.143 775.321 258.934C769.935 264.725 762.932 269.303 754.313 272.67C745.829 275.902 736.47 277.518 726.235 277.518C718.425 277.518 711.085 276.979 704.217 275.902C702.197 277.653 701.187 279.807 701.187 282.366C701.187 284.117 701.995 285.598 703.611 286.81C705.227 287.887 707.921 288.426 711.691 288.426H741.991C752.361 288.426 760.441 290.244 766.231 293.88C772.022 297.381 774.917 302.431 774.917 309.03C774.917 311.454 774.513 313.945 773.705 316.504C772.089 321.756 768.386 326.604 762.595 331.048C756.939 335.627 748.927 339.33 738.557 342.158C728.188 344.986 715.597 346.4 700.783 346.4C687.586 346.4 676.409 345.255 667.251 342.966C658.094 340.677 651.293 337.512 646.849 333.472C642.271 329.567 639.981 325.19 639.981 320.342C639.981 319.265 640.251 317.649 640.789 315.494C642.001 311.589 644.762 308.424 649.071 306C653.246 303.441 660.181 301.758 669.877 300.95C666.645 297.853 665.029 294.149 665.029 289.84C665.029 288.359 665.231 286.81 665.635 285.194C667.79 278.191 674.119 273.007 684.623 269.64C674.523 264.119 669.473 256.039 669.473 245.4C669.473 242.437 669.877 239.34 670.685 236.108C672.301 229.105 675.87 222.776 681.391 217.12C686.913 211.329 693.983 206.751 702.601 203.384C711.22 200.017 720.647 198.334 730.881 198.334C746.907 198.334 759.498 200.421 768.655 204.596C766.635 201.499 765.019 198.199 763.807 194.698C762.73 191.062 762.191 187.763 762.191 184.8C762.191 179.683 763.807 175.306 767.039 171.67C770.406 168.034 775.456 166.216 782.189 166.216ZM738.355 237.926C740.51 231.058 741.587 225.806 741.587 222.17C741.587 217.591 739.635 215.302 735.729 215.302C732.363 215.302 729.4 216.985 726.841 220.352C724.417 223.584 721.926 229.442 719.367 237.926C717.213 244.929 716.135 250.248 716.135 253.884C716.135 258.328 718.021 260.55 721.791 260.55C725.158 260.55 728.121 258.867 730.679 255.5C733.238 252.133 735.797 246.275 738.355 237.926ZM698.157 308.828C694.387 308.828 690.953 308.626 687.855 308.222C686.239 310.242 685.431 312.935 685.431 316.302C685.566 319.669 686.913 322.093 689.471 323.574C692.165 325.055 696.272 325.796 701.793 325.796C708.527 325.796 713.981 324.786 718.155 322.766C722.465 320.746 724.619 317.851 724.619 314.08C724.619 312.464 724.013 311.185 722.801 310.242C721.589 309.299 719.839 308.828 717.549 308.828H698.157Z" fill="#00A995"/>
</svg>
