<svg width="658" height="338" viewBox="0 0 658 338" fill="none" xmlns="http://www.w3.org/2000/svg">
<g clip-path="url(#clip0_17_2)">
<path d="M189.34 156.84C186.024 156.824 182.801 155.749 180.14 153.77C177.415 151.634 175.081 149.042 173.24 146.11C171.038 142.64 169.118 138.998 167.5 135.22C165.707 131.127 163.79 126.937 161.75 122.65C159.666 118.297 157.363 114.051 154.85 109.93C152.289 105.74 149.196 101.898 145.65 98.5C141.911 94.9705 137.643 92.0484 133 89.84C127.52 87.3333 121.617 85.8781 115.6 85.55C123.26 85.55 131.18 83.53 139.36 79.49C147.856 75.2466 155.81 69.9955 163.05 63.85C170.727 57.4081 177.745 50.2195 184 42.39C189.955 35.0462 195.135 27.1075 199.46 18.7C201.1 15.4333 201.713 12.65 201.3 10.35C200.965 8.19614 199.945 6.20769 198.39 4.67999C196.758 3.14475 194.789 2.01437 192.64 1.37999C190.5 0.698183 188.289 0.262046 186.05 0.0799924C184.258 -0.0932711 182.451 -0.0158594 180.68 0.309992C179.2 0.609992 178.46 1.06999 178.46 1.68999C178.535 6.8417 177.65 11.9623 175.85 16.79C173.699 22.8983 170.9 28.7584 167.5 34.27C163.662 40.5199 159.246 46.3957 154.31 51.82C149.183 57.5226 143.487 62.6861 137.31 67.23C131.203 71.7345 124.563 75.4661 117.54 78.34C110.7 81.1719 103.4 82.7308 96 82.94C97.52 78.3133 98.8134 73.7667 99.88 69.3C100.947 64.8333 101.843 60.2833 102.57 55.65L104.87 55.35C105.58 55.25 106.35 55.09 107.17 54.89C110.348 54.1659 113.434 53.0858 116.37 51.67C119.353 50.2257 122.178 48.4763 124.8 46.45C127.179 44.5785 129.339 42.445 131.24 40.09C133.213 37.6443 135.005 35.0574 136.6 32.35C137.571 30.7132 138.395 28.9931 139.06 27.21C139.667 25.53 140.177 23.92 140.59 22.38C141.427 19.1565 141.375 15.7664 140.44 12.57C139.941 11.1211 139.151 9.78925 138.12 8.65611C137.088 7.52296 135.836 6.61234 134.44 5.97999C132.952 5.13666 131.385 4.44326 129.76 3.90999C127.941 3.32416 126.063 2.93855 124.16 2.75999C122.021 2.55988 119.869 2.55988 117.73 2.75999C115.535 2.95773 113.373 3.42112 111.29 4.13999C107.109 5.70212 103.167 7.84297 99.58 10.5C95.1334 13.62 90.9167 18.5 86.93 25.14C85.3631 27.5694 84.0781 30.1696 83.1 32.89C82.0163 35.8746 81.095 38.9158 80.34 42C78.7 40.57 76.81 38.75 74.66 36.56C72.51 34.37 70.22 32.14 67.76 29.89C65.3 27.64 62.76 25.54 60.25 23.6C57.9436 21.8071 55.4204 20.3119 52.74 19.15C49.0153 17.5369 45.0474 16.5568 41 16.25C37.0278 15.932 33.0306 16.1845 29.13 17C25.2636 17.8156 21.5214 19.137 18 20.93C14.6061 22.6313 11.4823 24.825 8.73003 27.44C6.15691 29.8814 4.00761 32.7336 2.37003 35.88C0.806337 38.8558 -0.00721596 42.1684 2.63546e-05 45.53C-0.022709 46.2965 0.215096 47.048 0.67461 47.6619C1.13412 48.2758 1.7882 48.7158 2.53003 48.91C4.35226 49.5436 6.27094 49.8549 8.20003 49.83C10.1209 49.8529 12.0346 49.5935 13.88 49.06C15.56 48.55 16.4 47.89 16.4 47.06C16.4072 43.2355 17.1086 39.444 18.47 35.87C19.7192 32.383 21.8316 29.2694 24.61 26.82C27.5077 24.3887 31.0464 22.8468 34.8 22.38C38.8934 21.7733 43.6967 22.5933 49.21 24.84C52.5391 26.2255 55.6222 28.1402 58.34 30.51C61.3534 33.07 64.1634 35.65 66.77 38.25C69.3767 40.85 71.71 43.2267 73.77 45.38C75.8234 47.5333 77.3567 48.81 78.37 49.21C78.0959 51.4555 77.6885 53.6828 77.15 55.88C76.53 58.4867 75.7867 61.35 74.92 64.47C74.0534 67.59 73.0234 70.8333 71.83 74.2C70.65 77.58 69.3967 80.9533 68.07 84.32C65.0801 91.516 61.7189 98.5522 58 105.4C54.6206 111.764 50.6426 117.791 46.12 123.4C42.53 127.978 38.1221 131.85 33.12 134.82C28.68 137.32 24.3634 137.653 20.17 135.82C19.2613 135.417 18.4489 134.825 17.7868 134.084C17.1247 133.342 16.6281 132.468 16.33 131.52C15.6146 129.452 15.3023 127.266 15.41 125.08C15.41 120.08 17.3034 115.277 21.09 110.67C22.423 109.152 23.9416 107.808 25.61 106.67C27.4626 105.36 29.4801 104.301 31.61 103.52C33.592 102.774 35.7039 102.433 37.82 102.52C38.8188 102.557 39.7998 102.795 40.7038 103.222C41.6079 103.648 42.4162 104.253 43.08 105C43.2729 105.261 43.5163 105.481 43.7959 105.646C44.0755 105.812 44.3855 105.919 44.7074 105.962C45.0294 106.005 45.3566 105.982 45.6698 105.896C45.9829 105.81 46.2755 105.662 46.53 105.46C47.8608 104.588 48.9866 103.439 49.83 102.09C50.715 100.751 51.289 99.2301 51.51 97.64C51.72 96.11 51.31 95.14 50.29 94.73C46.7353 93.4354 42.9217 93.0136 39.17 93.5C35.7977 93.9613 32.5299 94.9998 29.51 96.57C26.7011 98.0294 24.0983 99.8554 21.77 102C19.8736 103.711 18.1303 105.585 16.56 107.6C14.4587 110.47 12.7095 113.583 11.35 116.87C10.0637 119.844 9.43599 123.061 9.51003 126.3C9.37535 129.107 9.87079 131.909 10.96 134.5C11.9998 136.96 13.6029 139.142 15.64 140.87C17.8277 142.575 20.3646 143.777 23.07 144.39C26.0267 145.029 29.0452 145.337 32.07 145.31C38.9247 144.741 45.5976 142.814 51.7 139.64C61.1844 134.826 69.5229 128.029 76.15 119.71C82.873 111.268 88.4077 101.944 92.6 92C94.1334 91.6933 95.87 91.4133 97.81 91.16C99.3337 90.9338 100.87 90.8035 102.41 90.77C107.931 90.6398 113.387 91.9899 118.21 94.68C122.739 97.3206 126.718 100.807 129.93 104.95C133.382 109.42 136.293 114.284 138.6 119.44C141.053 124.86 143.3 130.43 145.34 136.15C147.38 141.87 149.323 147.467 151.17 152.94C152.818 157.943 154.788 162.833 157.07 167.58C158.855 171.423 161.265 174.944 164.2 178C166.649 180.558 170.01 182.046 173.55 182.14C175.651 182.255 177.729 181.66 179.45 180.45C181.291 179.172 182.901 177.589 184.21 175.77C185.597 173.869 186.755 171.812 187.66 169.64C188.509 167.654 189.201 165.604 189.73 163.51C190.147 161.961 190.352 160.364 190.34 158.76C190.29 157.48 190 156.84 189.34 156.84ZM106.34 40.09C107.21 36.98 108.16 33.88 109.18 30.82C109.893 28.98 110.66 27.0867 111.48 25.14C112.315 23.171 113.397 21.3162 114.7 19.62C115.796 17.7972 117.26 16.2235 119 15C119.769 14.329 120.588 13.7173 121.45 13.17C122.219 12.6996 123.033 12.3076 123.88 12C125.21 11.5244 126.608 11.2645 128.02 11.23C128.959 11.2363 129.89 11.3916 130.78 11.69C131.646 12.0505 132.424 12.5949 133.06 13.2855C133.695 13.9761 134.173 14.7966 134.46 15.69C135.075 17.8946 135.075 20.2254 134.46 22.43C134.127 23.7333 133.716 25.0155 133.23 26.27C132.657 27.7198 131.936 29.107 131.08 30.41C129.882 32.7215 128.416 34.8832 126.71 36.85C125.113 38.6752 123.399 40.3955 121.58 42C117.348 45.4455 112.346 47.8163 107 48.91C106.51 49.1067 105.995 49.2346 105.47 49.29C105.005 49.3341 104.544 49.4109 104.09 49.52C104.697 46.3533 105.44 43.21 106.32 40.09H106.34Z" fill="#3CD97D" fill-opacity="0.481"/>
<path d="M266.32 105.87C265.32 108.3 264.25 110.73 263.24 113.15C260.573 119.483 258.24 125.383 256.24 130.85C254.489 135.542 253.007 140.33 251.8 145.19C250.8 149.27 250.65 152.24 251.26 154.08C252.18 157.15 253.54 159.24 255.32 160.37C256.86 161.417 258.678 161.977 260.54 161.98C262.031 161.985 263.482 161.5 264.67 160.6C265.75 159.73 266.08 158.88 265.67 158.07C265.057 156.843 265.287 154.49 266.36 151.01C267.75 146.69 269.362 142.444 271.19 138.29C273.343 133.283 275.847 127.763 278.7 121.73C281.553 115.697 284.493 109.487 287.52 103.1C290.527 96.72 293.44 90.4367 296.26 84.25C299.08 78.0633 301.513 72.3133 303.56 67C305.3 64.0333 307.113 61.17 309 58.41C310.702 55.8894 312.597 53.5055 314.67 51.28C316.314 49.4845 318.231 47.9592 320.35 46.76C321.983 45.7799 323.926 45.4514 325.79 45.84C326.775 46.1187 327.666 46.6578 328.37 47.4005C329.074 48.1432 329.564 49.0619 329.79 50.06C330.541 52.7244 330.825 55.4987 330.63 58.26C330.439 61.6344 329.927 64.9829 329.1 68.26C328.294 71.5989 327.189 74.8587 325.8 78C323.647 82.8 321.5 87.0933 319.36 90.88C317.504 94.2071 315.429 97.4074 313.15 100.46C311.523 102.693 309.618 104.71 307.48 106.46C305.687 107.84 304.127 108.477 302.8 108.37C302.232 108.358 301.681 108.177 301.218 107.849C300.754 107.521 300.4 107.061 300.2 106.53C301.009 106.194 301.693 105.615 302.159 104.874C302.624 104.132 302.848 103.264 302.8 102.39C302.821 101.778 302.701 101.17 302.45 100.611C302.198 100.053 301.822 99.56 301.35 99.17C300.414 98.3835 299.222 97.9673 298 98C297.364 98.0125 296.737 98.1546 296.157 98.4177C295.578 98.6808 295.058 99.0593 294.63 99.53C293.71 100.25 293.25 101.73 293.25 103.98C293.185 105.769 293.607 107.542 294.47 109.11C295.222 110.412 296.245 111.537 297.47 112.41C298.633 113.224 299.934 113.82 301.31 114.17C302.591 114.513 303.899 114.744 305.22 114.86H307.52C312.303 115.482 317.147 115.482 321.93 114.86C325.975 114.318 329.923 113.21 333.66 111.57C337.114 110.02 340.338 108.001 343.24 105.57C346.133 103.136 348.847 100.496 351.36 97.67C355.204 93.3403 358.775 88.7747 362.05 84C365.234 79.3546 368.078 74.4852 370.56 69.43C370.865 68.8097 370.946 68.1033 370.79 67.43C370.71 67.069 370.551 66.7301 370.325 66.4379C370.098 66.1456 369.81 65.9073 369.48 65.74C369.151 65.5048 368.773 65.3483 368.374 65.2824C367.975 65.2165 367.567 65.2431 367.18 65.36C366.866 65.4972 366.583 65.6963 366.347 65.9455C366.112 66.1946 365.929 66.4886 365.81 66.81C363.778 70.6766 361.552 74.438 359.14 78.08C356.35 82.3395 353.298 86.4207 350 90.3C346.61 94.4033 342.84 98.1767 338.74 101.57C334.799 104.79 330.147 107.025 325.17 108.09C329.113 104.945 332.573 101.239 335.44 97.09C339.057 91.8363 342.041 86.1738 344.33 80.22C345.733 76.6073 346.859 72.8933 347.7 69.11C348.604 65.2971 348.915 61.3675 348.62 57.46C348.353 53.842 347.28 50.3296 345.48 47.18C343.427 43.8474 340.33 41.2877 336.67 39.9C330.937 37.6533 325.773 37.6267 321.18 39.82C316.234 42.2982 311.892 45.8312 308.46 50.17C308.685 48.5394 308.631 46.8824 308.3 45.27C307.38 42.2 305.85 40.16 303.7 39.13C301.729 38.1454 299.542 37.6742 297.34 37.76C295.518 37.7872 293.73 38.2574 292.13 39.13C290.75 39.95 290.41 40.67 291.13 41.28C291.85 41.89 291.59 43.79 290.67 46.95C289.75 50.11 288.32 54.11 286.38 58.95C284.44 63.79 282.16 69.2 279.56 75.28C276.96 81.36 274.31 87.47 271.56 93.83C269.21 96.3988 266.666 98.7825 263.95 100.96C261.522 102.936 258.829 104.562 255.95 105.79C253.667 106.818 251.136 107.166 248.66 106.79C247.923 106.65 247.228 106.342 246.629 105.889C246.031 105.436 245.545 104.851 245.21 104.18C244.378 102.503 243.885 100.678 243.76 98.81C243.554 96.4348 243.605 94.0444 243.91 91.68C244.232 89.017 244.744 86.3804 245.44 83.79C250.554 82.4497 255.422 80.3027 259.86 77.43C263.932 74.8204 267.632 71.6718 270.86 68.07C273.698 64.9339 276.057 61.3957 277.86 57.57C279.375 54.5145 280.214 51.1687 280.32 47.76C280.374 46.4396 280.165 45.1217 279.703 43.8835C279.241 42.6454 278.536 41.512 277.63 40.55C275.84 38.71 273.06 37.8 269.28 37.8C265.559 37.8078 261.871 38.4852 258.39 39.8C254.601 41.2514 251.079 43.323 247.97 45.93C244.294 49.0176 241.069 52.6059 238.39 56.59C232.906 64.8034 228.981 73.9558 226.81 83.59C226.482 85.0293 226.228 86.4845 226.05 87.95C224.55 89.85 222.99 91.7 221.37 93.48C218.906 96.1913 216.231 98.7025 213.37 100.99C210.943 102.968 208.25 104.594 205.37 105.82C203.091 106.851 200.562 107.198 198.09 106.82C197.353 106.68 196.658 106.372 196.059 105.919C195.461 105.466 194.975 104.881 194.64 104.21C193.808 102.533 193.315 100.708 193.19 98.84C192.984 96.4648 193.035 94.0744 193.34 91.71C193.662 89.047 194.173 86.4104 194.87 83.82C199.982 82.4816 204.846 80.3345 209.28 77.46C213.353 74.8524 217.054 71.7036 220.28 68.1C223.114 64.9613 225.473 61.4236 227.28 57.6C228.788 54.5424 229.623 51.1974 229.73 47.79C229.795 46.4486 229.586 45.108 229.117 43.8496C228.647 42.5913 227.927 41.4415 227 40.47C225.21 38.63 222.43 37.72 218.65 37.72C214.929 37.7278 211.241 38.4052 207.76 39.72C203.969 41.1736 200.444 43.245 197.33 45.85C193.659 48.9429 190.435 52.5305 187.75 56.51C182.274 64.7263 178.352 73.8779 176.18 83.51C175.274 87.3497 174.963 91.306 175.26 95.24C175.52 98.8814 176.593 102.418 178.4 105.59C180.437 108.906 183.551 111.423 187.22 112.72C190.744 114.231 194.625 114.71 198.41 114.1C202.32 113.43 206.081 112.076 209.52 110.1C213.338 107.914 216.869 105.26 220.03 102.2C222.03 100.26 224.03 98.2 225.93 96.02C226.28 99.3835 227.322 102.638 228.99 105.58C231.027 108.896 234.141 111.413 237.81 112.71C241.336 114.214 245.216 114.686 249 114.07C252.913 113.4 256.677 112.046 260.12 110.07C262.288 108.826 264.36 107.422 266.32 105.87ZM248.67 74.51C252.89 65.0033 257.083 57.5433 261.25 52.13C265.417 46.7167 268.89 44.05 271.67 44.13C273.51 44.2367 274.403 45.6167 274.35 48.27C274.297 50.9233 273.297 54.0667 271.35 57.7C269.015 61.8104 266.041 65.5234 262.54 68.7C258.187 72.6752 253.041 75.6814 247.44 77.52C247.797 76.4957 248.207 75.491 248.67 74.51ZM198.08 74.51C202.267 64.9967 206.457 57.5367 210.65 52.13C214.843 46.7233 218.32 44.0567 221.08 44.13C222.92 44.2367 223.813 45.6167 223.76 48.27C223.707 50.9233 222.707 54.0667 220.76 57.7C218.425 61.8104 215.451 65.5234 211.95 68.7C207.595 72.6774 202.445 75.6838 196.84 77.52C197.16 76.66 197.57 75.64 198.08 74.51Z" fill="#3CD97D" fill-opacity="0.481"/>
<path d="M386.81 109.24C387.649 110.835 388.89 112.183 390.41 113.15C392.003 114.098 393.853 114.525 395.7 114.37C398.476 114.258 401.151 113.295 403.36 111.61C406.247 109.58 408.897 107.232 411.26 104.61C413.988 101.603 416.523 98.4266 418.85 95.1C421.297 91.6333 423.57 88.1867 425.67 84.76C427.77 81.3333 429.583 78.1133 431.11 75.1C432.65 72.1 433.82 69.71 434.64 67.97C434.837 67.6766 434.949 67.3344 434.963 66.9813C434.977 66.6282 434.893 66.2781 434.72 65.97C434.403 65.3954 433.882 64.9602 433.26 64.75C432.61 64.5377 431.91 64.5377 431.26 64.75C430.897 64.8577 430.566 65.0539 430.297 65.3209C430.028 65.5879 429.83 65.9175 429.72 66.28C428.867 68.5506 427.845 70.7535 426.66 72.87C425.227 75.5367 423.59 78.35 421.75 81.31C419.91 84.27 417.97 87.2333 415.93 90.2C413.883 93.16 411.883 95.8266 409.93 98.2C408.283 100.268 406.516 102.238 404.64 104.1C403.047 105.633 401.743 106.45 400.73 106.55C398.38 106.76 397.33 105.81 397.58 103.72C398.12 100.775 399.105 97.9291 400.5 95.28C402.18 91.76 404.273 87.76 406.78 83.28C409.287 78.8 411.64 74.25 413.84 69.63C415.922 65.3493 417.648 60.9043 419 56.34C419.477 54.7938 419.812 53.2072 420 51.6C420.238 51.5918 420.47 51.5192 420.67 51.39C420.967 51.1321 421.201 50.8096 421.353 50.4473C421.506 50.085 421.573 49.6925 421.55 49.3C421.581 48.463 421.821 47.6471 422.249 46.9272C422.677 46.2074 423.279 45.6066 424 45.18C425.985 44.0247 428.164 43.2419 430.43 42.87C433.504 42.2844 436.621 41.95 439.75 41.87C443.28 41.75 447.01 41.7 450.92 41.7C448.967 46.3666 446.843 51.39 444.55 56.77C442.257 62.15 440.09 67.38 438.05 72.46C436.05 77.54 434.303 82.2067 432.81 86.46C431.613 89.6618 430.723 92.97 430.15 96.34C429.93 98.2336 429.93 100.146 430.15 102.04C430.319 103.615 430.78 105.144 431.51 106.55C432.119 107.73 433.034 108.725 434.16 109.43C435.332 110.128 436.691 110.446 438.05 110.34C440.094 110.267 442.066 109.569 443.7 108.34C445.829 106.837 447.778 105.096 449.51 103.15C451.518 100.936 453.385 98.598 455.1 96.15C456.913 93.59 458.58 91.05 460.1 88.53C461.62 86.01 462.953 83.64 464.1 81.42C465.227 79.2 466.093 77.45 466.7 76.17C466.846 75.9547 466.928 75.7031 466.939 75.4435C466.949 75.1839 466.887 74.9264 466.76 74.7C466.525 74.2755 466.14 73.9544 465.68 73.8C465.205 73.6497 464.695 73.6497 464.22 73.8C463.953 73.8797 463.709 74.0247 463.512 74.222C463.315 74.4193 463.17 74.6626 463.09 74.93C462.458 76.6003 461.702 78.2214 460.83 79.78C459.77 81.74 458.567 83.81 457.22 85.99C455.86 88.17 454.43 90.36 452.93 92.54C451.43 94.72 449.93 96.7 448.52 98.47C447.312 99.9938 446.013 101.443 444.63 102.81C443.877 103.693 442.872 104.324 441.75 104.62C440.4 104.77 439.85 103.87 440.11 101.91C440.583 99.2207 441.341 96.5892 442.37 94.06C443.61 90.7866 445.277 86.9867 447.37 82.66C449.463 78.3333 451.607 73.8166 453.8 69.11C456.02 64.41 458.24 59.6866 460.46 54.94C462.68 50.1933 464.583 45.7933 466.17 41.74C469.957 41.6891 473.739 41.4421 477.5 41C481.11 40.54 484.4 40 487.37 39.36C489.99 38.8273 492.559 38.0712 495.05 37.1C496.775 36.493 498.364 35.5555 499.73 34.34C500.148 34.0396 500.467 33.621 500.645 33.1381C500.823 32.6551 500.853 32.1299 500.73 31.63C500.509 30.7161 500.018 29.89 499.32 29.26C499.061 28.9908 498.751 28.7767 498.407 28.6307C498.063 28.4846 497.694 28.4095 497.32 28.41C496.64 28.41 496.32 29.03 496.32 30.16C496.32 31.29 495.51 31.96 493.89 32.64C491.835 33.4358 489.694 33.9863 487.51 34.28C484.554 34.724 481.577 35.0078 478.59 35.13C475.257 35.2766 471.947 35.2766 468.66 35.13C469.232 33.1159 469.679 31.0688 470 29C470.319 27.5829 470.281 26.1088 469.89 24.71C469.679 23.7521 469.262 22.8517 468.668 22.0711C468.074 21.2906 467.317 20.6487 466.45 20.19C464.993 19.4758 463.382 19.1323 461.76 19.19C460.437 19.21 459.14 19.5534 457.98 20.19C456.98 20.8 456.72 21.32 457.25 21.77C457.62 22.15 457.51 23.43 456.91 25.61C456.31 27.79 455.36 30.61 454.09 33.97C449.423 33.5166 444.923 33.2133 440.59 33.06C436.706 32.8871 432.814 33.0947 428.97 33.68C425.966 34.0876 423.109 35.2277 420.65 37C419.143 38.1627 418.044 39.7732 417.51 41.6C416.788 40.6667 415.856 39.9164 414.79 39.41C412.814 38.4263 410.627 37.9421 408.42 38C406.623 38.034 404.862 38.5078 403.29 39.38C401.91 40.2 401.57 40.91 402.29 41.53C403.01 42.15 403.13 43.53 402.67 45.53C402.041 47.993 401.222 50.4036 400.22 52.74C399.053 55.6 397.673 58.7933 396.08 62.32C394.487 65.8466 392.93 69.5133 391.41 73.32C389.87 77.1066 388.513 80.8766 387.34 84.63C386.242 88.1299 385.459 91.7208 385 95.36C384.69 97.9307 384.69 100.529 385 103.1C385.214 105.242 385.828 107.325 386.81 109.24Z" fill="#3CD97D" fill-opacity="0.481"/>
<path d="M415.86 30.28C417.532 31.0024 419.329 31.3929 421.15 31.43C422.78 31.43 423.6 31.02 423.6 30.2C423.683 29.1836 423.969 28.1942 424.44 27.29C425.01 26.06 425.62 24.84 426.28 23.61C426.94 22.38 427.56 21.21 428.12 20.08C428.588 19.2851 428.878 18.398 428.97 17.48C429.057 15.163 428.231 12.9044 426.67 11.19C425.228 9.62324 423.478 8.37053 421.53 7.50998C419.919 6.76268 418.175 6.34775 416.4 6.28998C414.86 6.28998 414.1 6.64998 414.1 7.35998C413.994 8.28818 413.679 9.18041 413.18 9.96998C412.56 11.09 411.87 12.32 411.11 13.65C410.35 14.98 409.65 16.23 409.04 17.4C408.519 18.2632 408.204 19.2351 408.12 20.24C408.083 21.41 408.28 22.5756 408.701 23.668C409.122 24.7604 409.757 25.7574 410.57 26.6C412.055 28.1844 413.858 29.4382 415.86 30.28Z" fill="#3CD97D" fill-opacity="0.481"/>
<path d="M470.76 330.83C465.527 330.363 461.167 327.777 457.68 323.07C454.193 318.363 451.58 312.233 449.84 304.68C447.98 296.138 447.045 287.422 447.05 278.68C446.973 268.4 447.625 258.128 449 247.94C450.44 236.929 452.533 226.013 455.27 215.25C457.966 204.498 461.432 193.955 465.64 183.7C469.564 174.094 474.318 164.849 479.85 156.07C484.673 148.253 490.67 141.224 497.63 135.23C499.49 133.723 500.247 132.36 499.9 131.14C499.651 130.451 499.252 129.824 498.734 129.306C498.216 128.788 497.589 128.39 496.9 128.14C494.871 127.29 492.722 126.76 490.53 126.57C487.927 126.289 485.306 126.202 482.69 126.31C480.222 126.392 477.769 126.727 475.37 127.31C473.516 127.665 471.791 128.507 470.37 129.75C464.567 135.889 459.219 142.443 454.37 149.36C448.811 157.23 443.993 165.6 439.98 174.36C436.38 181.1 432.603 187.957 428.65 194.93C424.697 201.903 420.543 208.793 416.19 215.6C413.63 219.553 410.297 224.433 406.19 230.24C402.083 236.047 397.667 242.047 392.94 248.24C388.227 254.4 383.403 260.327 378.47 266.02C374.181 271.036 369.614 275.807 364.79 280.31C360.603 284.15 357 286.65 353.98 287.81C350.96 288.97 348.967 288.033 348 285C347.42 283 347.59 280.47 348.52 277.33C349.65 273.702 351.079 270.173 352.79 266.78C354.71 262.893 357.007 258.68 359.68 254.14C362.353 249.6 365.083 244.953 367.87 240.2C370.663 235.533 373.51 230.74 376.41 225.82C379.31 220.9 382.1 215.9 384.78 210.82C387.447 205.767 389.86 200.743 392.02 195.75C394.105 190.927 395.882 185.977 397.34 180.93C400.36 169.997 400.767 160.757 398.56 153.21C397.209 148.043 394.566 143.304 390.88 139.44C387.265 135.711 382.98 132.695 378.25 130.55C373.245 128.287 367.941 126.755 362.5 126C356.845 125.192 351.122 124.961 345.42 125.31C325.517 126.573 306.368 133.395 290.15 145C281.809 150.575 274.344 157.359 268 165.13C262.017 172.537 257.416 180.962 254.42 190C252.388 195.937 251.183 202.125 250.84 208.39C250.452 213.675 251.132 218.984 252.84 224C254.291 228.197 257.108 231.785 260.84 234.19C264.547 236.583 269.37 237.31 275.31 236.37C279.312 235.857 283.107 234.294 286.31 231.84C288.869 229.895 291.054 227.503 292.76 224.78C293.98 222.977 294.647 220.857 294.68 218.68C294.56 217 293.68 216.39 292.06 216.85C288.774 218.105 285.176 218.287 281.78 217.37C278.84 216.505 276.285 214.659 274.54 212.14C272.606 209.216 271.408 205.867 271.05 202.38C270.576 197.939 270.914 193.449 272.05 189.13C273.257 184.158 275.011 179.335 277.28 174.75C279.814 169.543 282.912 164.63 286.52 160.1C290.273 155.366 294.576 151.095 299.34 147.38C304.148 143.606 309.534 140.635 315.29 138.58C322.026 136.012 329.171 134.681 336.38 134.65C342.44 134.548 348.431 135.957 353.81 138.75C368.57 147.123 373.047 161.823 367.24 182.85C365.76 187.961 363.953 192.971 361.83 197.85C359.617 202.963 357.177 208.103 354.51 213.27C351.843 218.437 349.053 223.58 346.14 228.7C343.24 233.82 340.393 238.82 337.6 243.7C334.227 249.273 331.09 254.647 328.19 259.82C325.29 264.993 322.79 269.847 320.69 274.38C318.49 278.695 316.811 283.258 315.69 287.97C314.917 291.066 314.948 294.309 315.78 297.39C316.833 301.337 319.74 303.833 324.5 304.88C325.389 305.11 326.29 305.287 327.2 305.41C328.096 305.523 328.997 305.58 329.9 305.58C336.873 305.58 344.66 302.79 353.26 297.21C364.18 290.117 375.917 279.137 388.47 264.27C400.693 249.506 411.933 233.956 422.12 217.72L428.39 207.78C425.973 217.072 424.083 226.494 422.73 236C421.418 245.134 420.573 254.33 420.2 263.55C419.814 273.397 420.37 283.259 421.86 293C423.044 301.411 425.73 309.54 429.79 317C433.421 323.599 438.784 329.082 445.3 332.86C451.807 336.64 459.943 338.307 469.71 337.86C470.192 337.878 470.672 337.799 471.122 337.627C471.572 337.455 471.983 337.194 472.33 336.86C472.974 336.245 473.426 335.457 473.63 334.59C473.718 334.189 473.725 333.775 473.651 333.372C473.578 332.968 473.424 332.584 473.2 332.24C472.94 331.823 472.581 331.477 472.156 331.231C471.73 330.985 471.251 330.847 470.76 330.83Z" fill="#3CD97D" fill-opacity="0.481"/>
<path d="M570.1 211.77C570.021 211.41 569.863 211.072 569.638 210.78C569.414 210.488 569.128 210.249 568.8 210.08C568.471 209.845 568.093 209.688 567.694 209.622C567.296 209.557 566.887 209.583 566.5 209.7C566.183 209.835 565.898 210.033 565.661 210.283C565.423 210.532 565.239 210.827 565.12 211.15C563.088 215.017 560.862 218.778 558.45 222.42C555.661 226.665 552.615 230.736 549.33 234.61C545.937 238.713 542.164 242.487 538.06 245.88C534.12 249.101 529.468 251.333 524.49 252.39C528.436 249.249 531.897 245.542 534.76 241.39C538.377 236.136 541.361 230.474 543.65 224.52C545.046 220.896 546.166 217.173 547 213.38C547.9 209.563 548.21 205.631 547.92 201.72C547.645 198.105 546.569 194.597 544.77 191.45C542.717 188.117 539.62 185.558 535.96 184.17C530.227 181.923 525.063 181.897 520.47 184.09C515.524 186.568 511.182 190.101 507.75 194.44C507.975 192.809 507.921 191.152 507.59 189.54C506.67 186.47 505.14 184.43 502.99 183.4C501.019 182.416 498.832 181.942 496.63 182.02C494.808 182.057 493.021 182.53 491.42 183.4C490.04 184.22 489.71 184.94 490.42 185.55C491.13 186.16 490.88 188.06 489.96 191.22C489.04 194.38 487.61 198.38 485.67 203.22C483.73 208.06 481.45 213.47 478.85 219.55C476.25 225.63 473.53 231.89 470.72 238.33C467.91 244.77 465.18 251.16 462.52 257.49C459.86 263.82 457.52 269.73 455.52 275.2C453.769 279.892 452.287 284.68 451.08 289.54C450.08 293.62 449.93 296.59 450.54 298.43C451.46 301.49 452.82 303.59 454.6 304.71C456.138 305.761 457.957 306.322 459.82 306.32C461.334 306.331 462.806 305.831 464 304.9C465.07 304.03 465.4 303.19 465 302.37C464.387 301.15 464.617 298.8 465.69 295.32C466.77 291.85 468.38 287.6 470.52 282.6C472.66 277.6 475.17 272.07 478 266C480.83 259.93 483.8 253.76 486.82 247.37C489.84 240.98 492.75 234.7 495.56 228.51C498.37 222.32 500.8 216.58 502.84 211.27C504.58 208.303 506.393 205.44 508.28 202.68C509.979 200.155 511.879 197.771 513.96 195.55C515.601 193.755 517.514 192.23 519.63 191.03C521.263 190.05 523.206 189.721 525.07 190.11C526.053 190.389 526.943 190.927 527.646 191.667C528.35 192.408 528.842 193.324 529.07 194.32C529.82 196.988 530.104 199.765 529.91 202.53C529.724 205.905 529.212 209.254 528.38 212.53C527.576 215.866 526.471 219.123 525.08 222.26C522.94 227.073 520.793 231.367 518.64 235.14C516.793 238.476 514.719 241.68 512.43 244.73C510.804 246.964 508.898 248.98 506.76 250.73C504.973 252.11 503.413 252.75 502.08 252.65C501.512 252.638 500.961 252.457 500.498 252.129C500.034 251.801 499.68 251.341 499.48 250.81C500.288 250.473 500.971 249.894 501.437 249.152C501.902 248.411 502.127 247.544 502.08 246.67C502.101 246.058 501.981 245.45 501.73 244.891C501.478 244.333 501.102 243.84 500.63 243.45C499.714 242.657 498.542 242.223 497.33 242.23C496.694 242.243 496.067 242.385 495.488 242.649C494.908 242.912 494.389 243.29 493.96 243.76C493.04 244.47 492.58 245.96 492.58 248.2C492.517 249.993 492.942 251.77 493.81 253.34C494.557 254.646 495.581 255.773 496.81 256.64C497.971 257.452 499.268 258.048 500.64 258.4C501.921 258.743 503.229 258.974 504.55 259.09H506.85C511.634 259.702 516.476 259.702 521.26 259.09C525.306 258.549 529.255 257.438 532.99 255.79C536.448 254.247 539.673 252.227 542.57 249.79C545.464 247.357 548.181 244.72 550.7 241.9C554.529 237.575 558.086 233.016 561.35 228.25C564.537 223.61 567.382 218.744 569.86 213.69C570.154 213.095 570.239 212.419 570.1 211.77Z" fill="#3CD97D" fill-opacity="0.481"/>
<path d="M580.7 286.21C580.699 286.751 580.53 287.278 580.217 287.719C579.903 288.159 579.461 288.492 578.95 288.67C577.454 289.279 575.844 289.559 574.23 289.49C571.957 289.457 569.694 289.182 567.48 288.67C564.984 288.134 562.579 287.237 560.34 286.01C558.151 284.826 556.188 283.265 554.54 281.4C552.956 279.624 552.093 277.32 552.12 274.94C552.238 273.496 552.75 272.113 553.6 270.94C554.614 269.326 555.74 267.786 556.97 266.33C557.87 265.23 558.77 264.067 559.67 262.84C560.246 262.18 560.696 261.421 561 260.6C561 258.55 563 257.52 566.93 257.52C569.067 257.566 571.192 257.84 573.27 258.34C575.756 258.915 578.157 259.812 580.41 261.01C582.659 262.165 584.673 263.729 586.35 265.62C587.936 267.391 588.8 269.693 588.77 272.07C588.628 273.266 588.161 274.4 587.42 275.35L584.73 279.45C583.83 280.683 582.93 281.98 582.03 283.34C581.369 284.18 580.913 285.163 580.7 286.21ZM573.7 233.14C573.062 231.721 572.722 230.186 572.7 228.63C572.869 224.575 573.771 220.584 575.36 216.85C577.392 211.749 579.761 206.788 582.45 202C585.377 196.667 588.617 191.17 592.17 185.51C595.723 179.85 599.273 174.347 602.82 169C607.96 160.813 612.53 153.507 616.53 147.08C620.53 140.653 622.53 136.143 622.53 133.55C622.558 133.287 622.525 133.021 622.433 132.773C622.341 132.524 622.193 132.301 622 132.12C621.69 131.596 621.423 131.047 621.2 130.48C621.2 129.12 622.71 127.82 625.75 126.59C629.164 125.29 632.798 124.662 636.45 124.74C638.806 124.763 641.153 125.038 643.45 125.56C645.907 126.084 648.268 126.985 650.45 128.23C652.585 129.441 654.417 131.119 655.81 133.14C657.296 135.386 658.044 138.039 657.95 140.73C657.794 144.67 656.841 148.538 655.15 152.1C653.039 156.877 650.593 161.498 647.83 165.93C644.81 170.85 641.477 175.903 637.83 181.09C634.183 186.277 630.517 191.4 626.83 196.46C623.81 200.56 620.88 204.59 618.04 208.55C615.2 212.51 612.713 216.177 610.58 219.55C608.679 222.491 606.943 225.536 605.38 228.67C604.253 230.689 603.571 232.926 603.38 235.23C603.349 235.493 603.381 235.76 603.473 236.009C603.566 236.257 603.715 236.48 603.91 236.66V236.46C604.288 237.075 604.476 237.788 604.45 238.51C604.45 240.15 603.19 241.58 600.69 242.81C597.915 244.099 594.88 244.733 591.82 244.66C588.274 244.625 584.783 243.784 581.61 242.2C578.21 240.56 575.523 237.56 573.55 233.2L573.7 233.14Z" fill="#3CD97D" fill-opacity="0.481"/>
</g>
<defs>
<clipPath id="clip0_17_2">
<rect width="657.86" height="337.88" fill="white"/>
</clipPath>
</defs>
</svg>
